# xmcd
#
# Track frame offsets: 
#        150
#        17227
#        36215
#        55037
#        72351
#        88870
#
# Disc length: 1461 seconds
#
# Revision: 0
# Processed by: cddbd v1.5.2PL0 Copyright (c) Steve Scherf et al.
# Submitted via: ExactAudioCopy v0.95b4
#
DISCID=4b05b306
DTITLE=Darnell Levine - Journal Entries EP
DYEAR=2008
DGENRE=Rhythmic Soul
TTITLE0=Alright
TTITLE1=Red, Yellow, Green
TTITLE2=S.O.S.
TTITLE3=Monique
TTITLE4=Shrink Me Up
TTITLE5=When Birds Split
EXTD=
EXTT0=
EXTT1=
EXTT2=
EXTT3=
EXTT4=
EXTT5=
PLAYORDER=
